<svg xmlns="http://www.w3.org/2000/svg" viewBox="0 0 333333 199007" shape-rendering="geometricPrecision" text-rendering="geometricPrecision" image-rendering="optimizeQuality" fill-rule="evenodd" clip-rule="evenodd"><path d="M115259 146065c-432-433-944-770-1538-1010-593-239-1243-360-1949-360-374 0-761 32-1164 97-403 63-796 178-1183 340-386 163-754 388-1102 676-348 287-652 650-909 1087-415-686-978-1224-1687-1615-710-389-1522-585-2435-585-307 0-624 28-953 83-328 56-654 152-977 289-324 138-633 324-928 560s-562 534-803 894v-1505h-2590v12324h2614v-6831c0-523 83-988 249-1396s389-748 667-1022c278-276 603-483 977-624s772-213 1195-213c880 0 1563 278 2048 837 485 557 728 1355 728 2392v6857h2615v-6831c0-523 83-988 249-1396s388-748 666-1022c278-276 604-483 977-624 374-141 772-213 1196-213 879 0 1562 278 2048 837 486 557 728 1355 728 2392v6857h2615v-7745c0-720-119-1380-355-1981-236-600-571-1117-1002-1550zm122765 10443v204h235c48 0 86-7 111-22 26-15 39-41 39-78s-13-63-39-79c-26-17-63-25-111-25h-235zm241-272c153 0 269 34 348 102s119 158 119 273c0 89-28 163-85 222-57 58-140 98-248 115l347 401h-375l-310-389h-36v389h-313v-1114h554zm-73 1467c125 0 243-24 353-72 109-48 206-113 287-194 81-82 145-179 193-289 46-110 69-228 69-356 0-125-23-243-69-354-47-111-111-207-193-288-80-81-177-146-287-193s-228-71-353-71c-129 0-248 24-359 71-111 48-208 112-290 193-81 81-147 177-193 288s-70 229-70 354c0 127 23 246 70 356 46 110 111 207 193 289 82 81 179 146 290 194s230 72 359 72zm0-2166c179 0 347 33 504 100 157 65 294 156 410 269 117 114 209 246 276 398 68 153 101 315 101 489 0 172-33 335-101 487-67 152-158 287-276 401-116 116-253 206-410 272-157 67-325 100-504 100-183 0-354-33-512-100-159-66-296-156-413-272-116-114-208-248-274-401-66-152-100-316-100-487 0-174 33-335 100-489 66-152 158-285 274-398 117-113 254-204 413-269 158-67 329-100 512-100zm-51855-7207c342-347 750-618 1222-811s982-290 1531-290c605 0 1165 96 1684 290 502 186 937 447 1306 778l1294-2153c-485-388-1032-706-1640-953-811-330-1691-495-2644-495-952 0-1833 165-2644 495s-1509 785-2097 1364c-587 578-1048 1263-1382 2052-335 789-503 1646-503 2572 0 927 167 1784 503 2574 334 789 795 1472 1382 2052 587 579 1286 1033 2097 1364 811 330 1692 495 2644 495 953 0 1833-165 2644-495 608-248 1155-565 1640-954l-1294-2153c-369 331-804 591-1306 778-519 193-1080 290-1684 290-548 0-1059-96-1531-290-472-193-880-463-1222-810-343-347-613-763-810-1247-197-486-295-1019-295-1603 0-583 98-1117 295-1601 197-486 468-901 811-1248zm43399 4419c-180 481-434 897-760 1248-326 352-716 628-1170 829-454 202-961 303-1517 303-584 0-1105-105-1563-315-459-210-847-493-1165-849-317-356-561-774-733-1254-172-481-257-990-257-1531 0-540 86-1050 257-1531 172-480 416-898 733-1254 318-356 706-639 1165-849 458-211 980-316 1563-316 556 0 1063 101 1517 303 455 201 845 478 1170 830 326 352 579 767 760 1248 180 480 269 1002 269 1569s-90 1090-269 1570zm103-12741v6502c-430-548-961-989-1596-1318-635-331-1394-496-2277-496-867 0-1673 160-2419 482s-1398 770-1956 1344-995 1258-1312 2052c-319 793-477 1661-477 2605s158 1812 477 2605c317 794 754 1478 1312 2053 557 574 1209 1022 1956 1344 746 322 1552 482 2419 482 882 0 1642-163 2277-489 634-325 1166-763 1596-1311v1479h2688v-17334h-2688zm-12559 4688c-756 0-1437 137-2046 411-609 275-1119 935-1530 1527v-1616h-2442v12324h2468v-6780c0-523 72-991 219-1402 146-412 347-759 604-1042s567-498 927-644c361-146 755-219 1183-219 327 0 678 39 1055 117 193 39 372 87 540 144l795-2572c-216-69-434-127-659-165-331-56-702-83-1113-83zm-37379 0c-754 0-1436 137-2045 411-609 275-1119 935-1531 1527v-1616h-2441v12324h2467v-6780c0-523 73-991 219-1402 146-412 347-759 605-1042s566-498 927-644c359-146 754-219 1183-219 327 0 678 39 1056 117 192 39 372 87 540 144l795-2572c-216-69-435-127-660-165-330-56-701-83-1113-83zm-24275 10189c-433 163-860 244-1280 244-275 0-530-43-766-129-236-85-441-220-618-405-176-184-315-422-418-714-104-291-155-644-155-1055v-5365h4319v-2444h-4319v-3731h-2701v3731h-2457v2444h2457v5416c0 1639 387 2845 1163 3622 777 776 1864 1164 3262 1164 781 0 1481-120 2103-360 411-159 792-341 1149-541l-919-2251c-260 139-533 264-821 373zm49266-2136c-180 481-433 897-759 1248-326 352-716 628-1171 829-454 202-960 303-1518 303-583 0-1104-105-1563-315s-847-493-1164-849c-318-356-562-774-733-1254-172-481-257-990-257-1531 0-540 86-1050 257-1531 172-480 416-898 733-1254s705-639 1164-849c459-211 980-316 1563-316 558 0 1065 101 1518 303 455 201 845 478 1171 830s579 767 759 1248c180 480 270 1002 270 1569s-90 1090-270 1570zm102-6239c-429-548-960-989-1595-1318-634-331-1394-496-2277-496-866 0-1673 160-2419 482s-1398 770-1955 1344c-558 574-996 1258-1313 2052-318 793-476 1661-476 2605s158 1812 476 2605c317 794 755 1478 1313 2053 557 574 1209 1022 1955 1344s1553 482 2419 482c883 0 1643-163 2277-489 635-325 1166-763 1595-1311v1479h2689v-12324h-2689v1492zm-43243 3615c69-445 189-856 361-1228 172-373 393-694 662-965 271-270 592-478 965-624 374-146 800-219 1280-219 857 0 1557 266 2097 798 541 532 883 1278 1029 2238h-6394zm7520-3634c-511-570-1124-1012-1839-1325-717-313-1503-470-2360-470-910 0-1740 156-2491 470-751 313-1396 754-1936 1325-541 570-960 1254-1261 2052-300 798-450 1677-450 2637 0 978 155 1865 463 2663 309 798 741 1479 1299 2045s1223 1004 1995 1312c771 309 1621 464 2547 464 935 0 1825-129 2670-386s1644-708 2400-1351l-1337-1917c-515 411-1084 731-1706 958-622 228-1242 341-1859 341-438 0-858-59-1261-180-403-120-768-306-1094-559s-605-577-837-972c-231-394-390-870-476-1428h9109c17-154 30-317 39-489 8-171 13-343 13-515 0-960-144-1837-431-2631-286-793-685-1475-1196-2046zm-25175 4670c-756-587-1806-979-3152-1176l-1274-194c-284-43-550-92-798-148s-463-131-643-225c-179-94-324-215-431-360-107-146-160-326-160-541 0-438 204-792 611-1062s980-404 1717-404c386 0 766 33 1139 103 373 69 726 154 1061 256 334 103 639 217 914 342 274 124 506 243 695 353l1157-2096c-643-412-1393-731-2251-959-857-227-1771-341-2741-341-789 0-1496 93-2123 277-625 184-1159 446-1601 784-442 340-781 753-1017 1242-237 490-353 1038-353 1647 0 995 353 1799 1060 2413 708 613 1749 1014 3120 1202l1287 168c738 102 1278 268 1622 495 343 227 514 516 514 869 0 462-236 829-708 1099s-1170 405-2097 405c-506 0-958-34-1357-103-398-69-764-160-1093-276-331-116-627-248-889-398-261-150-504-311-726-482l-1248 2019c446 334 914 605 1402 811 490 205 969 366 1441 481 472 117 918 193 1338 231 420 39 789 59 1106 59 883 0 1675-98 2374-296 700-198 1287-474 1763-831 477-356 840-780 1094-1273s379-1035 379-1627c0-1055-376-1876-1131-2464zm-15152 1589c-180 481-433 897-759 1248-326 352-716 628-1170 829-455 202-961 303-1518 303-583 0-1105-105-1563-315-459-210-847-493-1164-849-318-356-562-774-733-1254-172-481-257-990-257-1531 0-540 86-1050 257-1531 172-480 416-898 733-1254s706-639 1164-849c459-211 980-316 1563-316 557 0 1063 101 1518 303 454 201 844 478 1170 830s579 767 759 1248c180 480 270 1002 270 1569s-90 1090-270 1570zm103-6239c-429-548-961-989-1596-1318-635-331-1394-496-2277-496-866 0-1672 160-2419 482-746 322-1398 770-1955 1344-558 574-995 1258-1313 2052-317 793-476 1661-476 2605s159 1812 476 2605c318 794 755 1478 1313 2053 557 574 1209 1022 1955 1344 747 322 1553 482 2419 482 883 0 1643-163 2277-489 635-325 1167-763 1596-1311v1479h2689v-12324h-2689v1492z" fill="#141515"/><path d="M147063 87405c0-14766 6898-27911 17638-36420-7920-6274-17924-10030-28812-10030-25653 0-46450 20797-46450 46449 0 25653 20796 46449 46450 46449 10888 0 20892-3755 28812-10029-10740-8508-17638-21654-17638-36420z" fill="#de2c1d"/><path d="M147063 87405c0 14767 6898 27912 17638 36420 10740-8508 17637-21654 17637-36420s-6898-27911-17637-36420c-10740 8508-17638 21654-17638 36420z" fill="#ed6100"/><path d="M193513 40955c-10888 0-20892 3756-28811 10030 10740 8508 17637 21654 17637 36420 0 14767-6898 27912-17637 36420 7919 6274 17923 10029 28811 10029 25653 0 46449-20796 46449-46449s-20796-46449-46449-46449zm49714 73260v-1972l-640 1702h-706l-640-1698v1968h-666v-2843h954l707 1820 700-1820h956v2843h-667zm-4775 0v-2230h-903v-613h2470v613h-902v2230h-666z" fill="#f79f06"/><path d="M31366 0h270600c8631 0 16474 3528 22156 9210 5683 5683 9211 13526 9211 22156v136275c0 8629-3529 16472-9211 22155-5683 5682-13526 9211-22155 9211H31367c-8629 0-16473-3528-22156-9211C3529 184114 1 176272 1 167641V31366c0-8631 3528-16474 9210-22156S22737 0 31368 0zm270600 10811H31366c-5647 0-10785 2315-14513 6043s-6043 8866-6043 14513v136275c0 5646 2315 10784 6043 14512 3729 3729 8867 6044 14513 6044h270600c5645 0 10783-2315 14512-6044 3728-3729 6044-8867 6044-14511V31368c0-5645-2315-10784-6043-14513-3728-3728-8867-6043-14513-6043z" fill="gray" fill-rule="nonzero"/></svg>