<?xml version="1.0" encoding="UTF-8"?>
<svg version="1.1" xmlns="http://www.w3.org/2000/svg" width="500" height="500">
<path d="M0 0 C22.19921435 12.12174999 42.14121845 30.01692959 49.84277344 54.70117188 C51.85583335 62.02095451 52.54599138 68.92407031 52.5 76.5 C52.49033203 78.19503662 52.49033203 78.19503662 52.48046875 79.92431641 C51.61638161 120.18964007 25.64549333 159.01147487 5.29663086 192.3840332 C-24.6215004 241.52205915 -48.08650649 294.73328874 -49 353 C-50.32 353 -51.64 353 -53 353 C-68.91431717 325.94960976 -69.45491137 303.93524292 -61.64453125 273.578125 C-54.23571164 246.18166448 -42.95393547 220.11364122 -32 194 C-47.14623826 216.10152567 -57.32296709 242.4399963 -65 268 C-65.32355469 269.02738281 -65.64710938 270.05476563 -65.98046875 271.11328125 C-69.99897225 285.20864124 -71.54154659 300.96162357 -71.0078125 315.5859375 C-71 318 -71 318 -72 320 C-73.8125 319.85546875 -73.8125 319.85546875 -76 319 C-87.58217683 300.84493782 -89.38313544 277.73226016 -85.03613281 257.13037109 C-78.65955178 229.52799298 -67.15226974 203.17529918 -52.28759766 179.11962891 C-49.81349001 175.04678048 -47.47849459 170.89330056 -45.125 166.75 C-44.10179565 164.95169024 -43.07835743 163.15351353 -42.0546875 161.35546875 C-41.54647461 160.46263184 -41.03826172 159.56979492 -40.51464844 158.64990234 C-39.0635671 156.11121169 -37.60058835 153.5798487 -36.1328125 151.05078125 C-4.86763216 98.11577437 -4.86763216 98.11577437 6.375 38.625 C6.41173828 36.78808594 6.41173828 36.78808594 6.44921875 34.9140625 C6.48019535 25.16676027 4.85776907 16.51400176 0.34521484 7.80712891 C-1.18495508 4.61404473 -1.06988438 3.30691535 0 0 Z " fill="#8EC044" transform="translate(305,80)"/>
<path d="M0 0 C7.79633966 0.11738263 15.59253407 0.24221761 23.38867188 0.37231445 C26.04261548 0.41571248 28.6965879 0.45738388 31.35058594 0.49731445 C35.15829158 0.55489925 38.96585155 0.6186275 42.7734375 0.68359375 C43.96617279 0.70030624 45.15890808 0.71701874 46.38778687 0.73423767 C47.48877716 0.75418289 48.58976746 0.77412811 49.72412109 0.79467773 C50.69674896 0.81022202 51.66937683 0.8257663 52.67147827 0.84178162 C55 1 55 1 57 2 C57.86311499 3.88525943 58.63394144 5.81296987 59.36328125 7.75390625 C60.06481323 9.59879639 60.06481323 9.59879639 60.78051758 11.48095703 C61.02927643 12.1440387 61.27803528 12.80712036 61.53433228 13.49029541 C62.87127955 17.05048969 64.23335365 20.60105773 65.59375 24.15234375 C65.8755159 24.8892041 66.1572818 25.62606445 66.44758606 26.38525391 C69.30534529 33.83839335 72.29292943 41.23621635 75.3125 48.625 C75.5791748 49.27823242 75.84584961 49.93146484 76.12060547 50.60449219 C77.22353534 53.30611 78.32688049 56.00755684 79.43139648 58.70852661 C81.49587924 63.7585404 83.54780451 68.81354359 85.59375 73.87109375 C86.04955696 74.99774445 86.04955696 74.99774445 86.51457214 76.14715576 C87.13499083 77.68072453 87.7554081 79.21429387 88.37582397 80.74786377 C95.0051909 97.12980636 101.68709518 113.49002028 108.41011047 129.83375549 C109.02736139 131.33822075 109.64158245 132.84393303 110.25260925 134.35093689 C111.79314452 138.13787906 113.38874778 141.88350818 115.09375 145.59960938 C121.14131477 158.98028964 121.14131477 158.98028964 118.93701172 164.98193359 C118.62779785 165.64789551 118.31858398 166.31385742 118 167 C117.70496582 167.77811035 117.40993164 168.5562207 117.10595703 169.35791016 C116.14612705 171.86873024 115.11213467 174.33801862 114.0625 176.8125 C107.04505203 193.89184531 104.65509843 210.4590174 104.875 228.8125 C104.88506348 230.29491574 104.8941833 231.77733819 104.90234375 233.25976562 C104.92405925 236.83998674 104.95839754 240.41994808 105 244 C104.01 244 103.02 244 102 244 C101.73598389 243.3822168 101.47196777 242.76443359 101.19995117 242.12792969 C80.4662135 193.63399671 59.55230476 145.21191591 38.3125 96.9375 C31.98664316 82.55953837 25.73831284 68.15213024 19.58056641 53.70117188 C17.75300344 49.41718502 15.91337435 45.13839463 14.07421875 40.859375 C13.05124172 38.47795067 12.02834868 36.09649027 11.00546265 33.71502686 C10.34536708 32.17877748 9.68491711 30.64268032 9.02407837 29.10675049 C7.52400097 25.61962074 6.0284532 22.13077636 4.546875 18.63574219 C3.59366682 16.3953419 2.62762752 14.16028937 1.640625 11.93457031 C1.26421875 11.06155273 0.8878125 10.18853516 0.5 9.2890625 C0.1803125 8.5667041 -0.139375 7.8443457 -0.46875 7.10009766 C-1.1354772 4.4644417 -0.59069538 2.62415205 0 0 Z " fill="#2A333C" transform="translate(104,133)"/>
<path d="M0 0 C0.84062397 3.09773244 1.08935201 5.78332751 1 9 C0.34 9 -0.32 9 -1 9 C-1.103125 9.86625 -1.20625 10.7325 -1.3125 11.625 C-2.14888491 15.73088957 -3.34724064 19.50363987 -6.52734375 22.3828125 C-8.38481341 24.42258025 -8.68051913 25.99660152 -9.1875 28.6875 C-9.34605469 29.49574219 -9.50460938 30.30398438 -9.66796875 31.13671875 C-9.77753906 31.75160156 -9.88710937 32.36648438 -10 33 C-10.66 33 -11.32 33 -12 33 C-12.78912143 35.70555919 -13.15304108 38.33120708 -13.4375 41.125 C-14 45 -14 45 -16 47 C-16.60380581 50.65861596 -16.95770134 54.31995271 -17.33984375 58.0078125 C-17.71093163 60.87680982 -18.43024525 63.23698069 -19.5546875 65.8984375 C-21.38139846 70.45547764 -21.34162675 74.64698329 -21.1875 79.5 C-21.16719727 80.73363281 -21.16719727 80.73363281 -21.14648438 81.9921875 C-21.11155016 83.99508221 -21.05776057 85.99763356 -21 88 C-20.01 88.33 -19.02 88.66 -18 89 C-17.0859375 91.21484375 -17.0859375 91.21484375 -16.375 93.9375 C-15.43114402 97.56119775 -15.43114402 97.56119775 -14 101 C-14.33 101.99 -14.66 102.98 -15 104 C-13.68 104 -12.36 104 -11 104 C-10.95512451 103.37544922 -10.91024902 102.75089844 -10.86401367 102.10742188 C-10.65076687 99.2372209 -10.41926391 96.36876276 -10.1875 93.5 C-10.11724609 92.51773438 -10.04699219 91.53546875 -9.97460938 90.5234375 C-9.53148746 85.20597454 -8.74570518 80.75344248 -6.67993164 75.83691406 C-5.5698421 72.83787861 -5.40203214 69.79397741 -5.125 66.625 C-4.34121769 59.87501265 -2.55351015 54.76428174 1 49 C1.33 49 1.66 49 2 49 C2.33 46.03 2.66 43.06 3 40 C3.66 40 4.32 40 5 40 C5.33 39.34 5.66 38.68 6 38 C6.66 38 7.32 38 8 38 C8 36.68 8 35.36 8 34 C8.66 34 9.32 34 10 34 C10.66 32.68 11.32 31.36 12 30 C11.36337927 33.72769301 10.30996131 37.00618407 8.890625 40.5078125 C-0.82873738 64.85901086 -7.9763368 89.04837175 -7.0078125 115.5859375 C-7 118 -7 118 -8 120 C-9.8125 119.85546875 -9.8125 119.85546875 -12 119 C-23.58879548 100.83456309 -25.36013002 77.75516039 -21.04272461 57.14355469 C-16.46420058 37.23234284 -8.92666767 18.322864 0 0 Z " fill="#99BA57" transform="translate(241,280)"/>
<path d="M0 0 C0.33 0 0.66 0 1 0 C0.9278125 1.28390625 0.855625 2.5678125 0.78125 3.890625 C0.27772893 13.27865467 -0.11762108 22.66029159 -0.1875 32.0625 C-0.20039063 32.90006836 -0.21328125 33.73763672 -0.2265625 34.60058594 C-0.28993538 40.09771364 -0.28993538 40.09771364 2 45 C2.495 45.474375 2.99 45.94875 3.5 46.4375 C5.42501579 48.44272478 6.0131479 50.4030208 7 53 C7.35320312 53.88300781 7.70640625 54.76601563 8.0703125 55.67578125 C9.046875 58.1171875 10.0234375 60.55859375 11 63 C11.99 62.505 11.99 62.505 13 62 C12.979375 62.969375 12.95875 63.93875 12.9375 64.9375 C12.64381501 67.87465895 12.64381501 67.87465895 14 69 C13.98428955 68.39341553 13.9685791 67.78683105 13.95239258 67.16186523 C13.69009676 55.36076676 13.85056978 43.78208115 15.375 32.0625 C15.50108643 31.06855225 15.62717285 30.07460449 15.75708008 29.05053711 C16.48996993 23.87184504 16.48996993 23.87184504 17 22 C17.66 21.67 18.32 21.34 19 21 C18.68889371 23.85432471 18.37615574 26.70845525 18.0625 29.5625 C17.97548828 30.36236328 17.88847656 31.16222656 17.79882812 31.98632812 C17.41773386 35.44440572 17.01981354 38.87645677 16.46875 42.3125 C15.78714256 47.67447852 15.63294211 53.03881217 15.4375 58.4375 C15.39431641 59.55060547 15.35113281 60.66371094 15.30664062 61.81054688 C15.20120112 64.54025844 15.09907971 67.27005143 15 70 C13.68 70 12.36 70 11 70 C-3.14090617 45.96396843 -5.20847933 27.40652218 0 0 Z " fill="#C2D597" transform="translate(241,363)"/>
<path d="M0 0 C0.84062397 3.09773244 1.08935201 5.78332751 1 9 C0.34 9 -0.32 9 -1 9 C-1.103125 9.86625 -1.20625 10.7325 -1.3125 11.625 C-2.14888491 15.73088957 -3.34724064 19.50363987 -6.52734375 22.3828125 C-8.38481341 24.42258025 -8.68051913 25.99660152 -9.1875 28.6875 C-9.34605469 29.49574219 -9.50460938 30.30398438 -9.66796875 31.13671875 C-9.77753906 31.75160156 -9.88710937 32.36648438 -10 33 C-10.66 33 -11.32 33 -12 33 C-12.78912143 35.70555919 -13.15304108 38.33120708 -13.4375 41.125 C-14 45 -14 45 -16 47 C-16.60380581 50.65861596 -16.95770134 54.31995271 -17.33984375 58.0078125 C-17.70634671 60.852458 -18.41341342 63.14766423 -19.5546875 65.7734375 C-21.62146876 70.9293737 -21.32766547 76.0227646 -21.1875 81.5 C-21.17396484 82.51320313 -21.16042969 83.52640625 -21.14648438 84.5703125 C-21.11143063 87.04744404 -21.06229764 89.52342927 -21 92 C-21.33 92 -21.66 92 -22 92 C-27.97522751 60.6179108 -13.42479547 27.55571403 0 0 Z " fill="#CCE09C" transform="translate(241,280)"/>
<path d="M0 0 C1.85776765 3.13498292 2.20140476 5.37471432 2 9 C1.34 9 0.68 9 0 9 C0.33 9.99 0.66 10.98 1 12 C-0.4375 15.1875 -0.4375 15.1875 -2 18 C-2.66 17.67 -3.32 17.34 -4 17 C-4.33 17.99 -4.66 18.98 -5 20 C-5.66 20 -6.32 20 -7 20 C-7.1546875 21.0828125 -7.1546875 21.0828125 -7.3125 22.1875 C-8.05986932 25.24491993 -9.28045189 27.38329635 -11 30 C-12 28 -12 28 -11.47094727 26.21240234 C-11.17244873 25.51066895 -10.8739502 24.80893555 -10.56640625 24.0859375 C-10.24736328 23.32539063 -9.92832031 22.56484375 -9.59960938 21.78125 C-9.25736328 20.9871875 -8.91511719 20.193125 -8.5625 19.375 C-8.22412109 18.57320313 -7.88574219 17.77140625 -7.53710938 16.9453125 C-6.69833222 14.96060036 -5.85004755 12.97991125 -5 11 C-11.59841279 20.1816212 -16.98149504 30.42067061 -21 41 C-21.33 41 -21.66 41 -22 41 C-22.125 34.375 -22.125 34.375 -21 31 C-20.01 31 -19.02 31 -18 31 C-17.34 27.7 -16.68 24.4 -16 21 C-15.34 21 -14.68 21 -14 21 C-14 20.01 -14 19.02 -14 18 C-12.69243829 16.64138382 -11.35481522 15.31149963 -10 14 C-8.88483071 12.34683335 -7.82163713 10.65744324 -6.8125 8.9375 C-6.04873047 7.65166016 -6.04873047 7.65166016 -5.26953125 6.33984375 C-3.88895595 3.95765708 -3.88895595 3.95765708 -3 1 C-2.01 0.67 -1.02 0.34 0 0 Z " fill="#B8D47E" transform="translate(278,263)"/>
<path d="M0 0 C0.9928162 3.56742363 0.96166619 6.42167193 0.625 10.125 C0.53476563 11.17945313 0.44453125 12.23390625 0.3515625 13.3203125 C0 16 0 16 -1 18 C-0.979375 19.0725 -0.95875 20.145 -0.9375 21.25 C-1.0005735 25.03440991 -1.77143967 27.45885551 -3 31 C-3.21774383 32.39143615 -3.40416896 33.78805789 -3.5625 35.1875 C-4 39 -4 39 -5 42 C-5.12373852 43.50626848 -5.2007235 45.01668247 -5.24609375 46.52734375 C-5.27896484 47.40197266 -5.31183594 48.27660156 -5.34570312 49.17773438 C-5.40676707 51.01355028 -5.46407555 52.84949505 -5.51757812 54.68554688 C-5.55173828 55.56146484 -5.58589844 56.43738281 -5.62109375 57.33984375 C-5.6461499 58.13769287 -5.67120605 58.93554199 -5.69702148 59.75756836 C-6.02673801 62.19789576 -6.78512606 63.87374275 -8 66 C-8.45911164 43.17194881 -7.2825106 21.77882887 0 0 Z " fill="#9FBF5E" transform="translate(248,338)"/>
<path d="M0 0 C0.66 0.33 1.32 0.66 2 1 C2 1.66 2 2.32 2 3 C2.99 3.33 3.98 3.66 5 4 C5.0498443 8.6773121 5.08592757 13.35446584 5.10986328 18.03198242 C5.11985321 19.61957496 5.1334498 21.20714943 5.15087891 22.79467773 C5.32450751 39.02895258 5.32450751 39.02895258 3 47 C2.34 47 1.68 47 1 47 C1 48.65 1 50.3 1 52 C0.34 52 -0.32 52 -1 52 C-0.85636473 50.62476865 -0.70996483 49.24982598 -0.5625 47.875 C-0.48128906 47.10929687 -0.40007812 46.34359375 -0.31640625 45.5546875 C-0.09667229 43.78053922 0.18390954 42.01329679 0.51147461 40.25585938 C1.01449899 36.90336908 1.12943786 33.7401837 1.1328125 30.3515625 C1.13410156 29.09859375 1.13539063 27.845625 1.13671875 26.5546875 C1.13285156 25.25789063 1.12898438 23.96109375 1.125 22.625 C1.13080078 20.69140625 1.13080078 20.69140625 1.13671875 18.71875 C1.13021793 12.38695532 0.99791427 6.25676406 0 0 Z " fill="#AFC97D" transform="translate(310,96)"/>
<path d="M0 0 C0.33 0 0.66 0 1 0 C1.52527702 7.80620015 0.62429129 13.10468769 -3 20 C-4.92934947 24.2515529 -6.58821428 28.54744504 -8 33 C-8.66 33 -9.32 33 -10 33 C-10.28875 33.86625 -10.5775 34.7325 -10.875 35.625 C-11.91666667 38.75 -12.95833333 41.875 -14 45 C-14.66 45 -15.32 45 -16 45 C-14.48301677 36.75981892 -11.57751204 29.15782418 -8.5625 21.375 C-8.06651489 20.07833234 -7.57106864 18.78145843 -7.07617188 17.484375 C-4.82421749 11.60623382 -2.50407704 5.77525939 0 0 Z " fill="#9CC35A" transform="translate(265,293)"/>
<path d="M0 0 C1.32 0.33 2.64 0.66 4 1 C2.84965035 9.54545455 2.84965035 9.54545455 2 12 C1.01 12.495 1.01 12.495 0 13 C-0.54876088 14.9259747 -0.54876088 14.9259747 -0.81640625 17.28515625 C-0.94039795 18.19773193 -1.06438965 19.11030762 -1.19213867 20.05053711 C-1.31435791 21.04448486 -1.43657715 22.03843262 -1.5625 23.0625 C-1.69180908 24.07642822 -1.82111816 25.09035645 -1.9543457 26.13500977 C-3.30277523 37.39090232 -3.7277161 48.67389252 -4 60 C-4.66 59.67 -5.32 59.34 -6 59 C-5.88047655 54.62567239 -5.75616614 50.25151295 -5.62768555 45.87744141 C-5.5847477 44.39375369 -5.54304988 42.91002949 -5.50268555 41.42626953 C-4.90586317 19.57225515 -4.90586317 19.57225515 -2 10 C-1.28049587 6.67657615 -0.63191599 3.34108771 0 0 Z " fill="#9EBB64" transform="translate(259,372)"/>
<path d="M0 0 C0.33 0 0.66 0 1 0 C1.08082094 1.95766281 1.13910778 3.91626728 1.1875 5.875 C1.23970703 7.51082031 1.23970703 7.51082031 1.29296875 9.1796875 C1.19628906 10.11039063 1.09960938 11.04109375 1 12 C0.01 12.66 -0.98 13.32 -2 14 C-2.95030333 16.73754378 -2.95030333 16.73754378 -3.5625 19.875 C-4.36082382 23.54638749 -5.15140242 26.7153674 -7 30 C-7.66 30 -8.32 30 -9 30 C-9.16435547 30.90492188 -9.16435547 30.90492188 -9.33203125 31.828125 C-10.97286532 40.09899593 -10.97286532 40.09899593 -14 43 C-14.66 43 -15.32 43 -16 43 C-13.93947898 36.3749573 -11.37460732 30.08731599 -8.5625 23.75 C-5.14932051 15.94401508 -2.18813479 8.24758499 0 0 Z " fill="#AAC676" transform="translate(308,148)"/>
<path d="M0 0 C1 2 1 2 0.19555664 4.88916016 C-0.22862549 6.09362793 -0.65280762 7.2980957 -1.08984375 8.5390625 C-1.42490685 9.50034561 -1.42490685 9.50034561 -1.76673889 10.48104858 C-2.48329183 12.5315779 -3.2102492 14.57824339 -3.9375 16.625 C-4.42451674 18.01277937 -4.91085369 19.4007975 -5.39648438 20.7890625 C-6.5897743 24.1955163 -7.79242355 27.59858074 -9 31 C-9.33 31 -9.66 31 -10 31 C-10.11138159 25.54230189 -9.91657981 20.38490641 -9 15 C-8.34 15 -7.68 15 -7 15 C-6.97421875 14.40832031 -6.9484375 13.81664062 -6.921875 13.20703125 C-6.54454807 7.95018101 -5.94197007 4.82251643 -2 1 C-1.34 0.67 -0.68 0.34 0 0 Z " fill="#AAC373" transform="translate(273,342)"/>
<path d="M0 0 C5.29387456 2.89132291 10.11013808 6.1401376 14.9375 9.75 C15.62134766 10.25660156 16.30519531 10.76320313 17.00976562 11.28515625 C18.67569833 12.52004343 20.3382122 13.75954064 22 15 C19.25509788 16.37245106 17.87939419 15.93580311 15 15 C14.5978125 14.0409375 14.5978125 14.0409375 14.1875 13.0625 C13.20345492 10.84661159 13.20345492 10.84661159 11.10546875 10.29296875 C9.08420475 9.80092725 7.04238834 9.39530097 5 9 C5 11.31 5 13.62 5 16 C-1.14814815 6.77777778 -1.14814815 6.77777778 -0.75 2 C-0.5025 1.34 -0.255 0.68 0 0 Z " fill="#A0B663" transform="translate(305,80)"/>
<path d="M0 0 C1.9375 0.8125 1.9375 0.8125 4 2 C5.36420006 6.09260018 3.7664515 8.47012659 2.0625 12.1875 C1.77181641 12.84169922 1.48113281 13.49589844 1.18164062 14.16992188 C0.46304657 15.78381344 -0.2673588 17.39243655 -1 19 C-1.33 17.68 -1.66 16.36 -2 15 C-2.99 15 -3.98 15 -5 15 C-4.5188509 9.22621075 -2.81532819 5.04140164 0 0 Z " fill="#30363B" transform="translate(217,295)"/>
<path d="M0 0 C0.33 0 0.66 0 1 0 C0.9278125 1.21429688 0.855625 2.42859375 0.78125 3.6796875 C-0.01987119 18.12700135 -0.11179895 32.53321553 0 47 C-4.6137398 42.3862602 -3.23668183 33.38043665 -3.25976562 27.19628906 C-3.17270497 17.96451136 -1.71988395 9.04986553 0 0 Z " fill="#DAE8AB" transform="translate(241,363)"/>
<path d="M0 0 C0.66 0.99 1.32 1.98 2 3 C1.34 3 0.68 3 0 3 C0 4.98 0 6.96 0 9 C-0.99 9.33 -1.98 9.66 -3 10 C-3 11.32 -3 12.64 -3 14 C-3.66 14 -4.32 14 -5 14 C-5.12117188 14.62648437 -5.24234375 15.25296875 -5.3671875 15.8984375 C-5.53476562 16.71570313 -5.70234375 17.53296875 -5.875 18.375 C-6.03742188 19.18710938 -6.19984375 19.99921875 -6.3671875 20.8359375 C-7 23 -7 23 -9 25 C-9.66 24.67 -10.32 24.34 -11 24 C-11.33 25.32 -11.66 26.64 -12 28 C-12.66 28 -13.32 28 -14 28 C-12.74241557 23.93502792 -11.23747765 20.32309788 -9.1796875 16.6015625 C-8.64472656 15.62832031 -8.10976563 14.65507812 -7.55859375 13.65234375 C-7.00300781 12.65332031 -6.44742187 11.65429688 -5.875 10.625 C-5.31167969 9.60277344 -4.74835938 8.58054688 -4.16796875 7.52734375 C-2.7830669 5.01574208 -1.39363545 2.50676281 0 0 Z " fill="#B2CC80" transform="translate(291,191)"/>
<path d="M0 0 C0.99 0 1.98 0 3 0 C1.3086912 5.57948067 -1.07794646 10.77344698 -3.5 16.0625 C-4.30303347 17.82378586 -5.10514604 19.58549193 -5.90625 21.34765625 C-6.26009766 22.12117432 -6.61394531 22.89469238 -6.97851562 23.69165039 C-8.0467605 26.10566934 -9.03363039 28.54362961 -10 31 C-10.33 31 -10.66 31 -11 31 C-10.6083965 25.04492601 -9.62875405 20.37180176 -7 15 C-6.34 15 -5.68 15 -5 15 C-5 13.02 -5 11.04 -5 9 C-4.01 9 -3.02 9 -2 9 C-2.061875 7.88625 -2.061875 7.88625 -2.125 6.75 C-1.99601866 3.91241048 -1.42948778 2.41226062 0 0 Z " fill="#AAC476" transform="translate(285,311)"/>
<path d="M0 0 C1.11544282 3.34632847 0.67217232 4.63913839 0 8 C0.33 8.99 0.66 9.98 1 11 C0.04906703 12.69514137 -0.95107762 14.36368108 -2 16 C-2 16.66 -2 17.32 -2 18 C-2.66 18 -3.32 18 -4 18 C-4.28875 18.86625 -4.5775 19.7325 -4.875 20.625 C-5.91666667 23.75 -6.95833333 26.875 -8 30 C-8.66 30 -9.32 30 -10 30 C-8.63218625 22.98095574 -6.49261049 16.5832708 -3.875 9.9375 C-3.50246094 8.97650391 -3.12992188 8.01550781 -2.74609375 7.02539062 C-1.83644515 4.68129617 -0.92101046 2.33964819 0 0 Z " fill="#BDDD83" transform="translate(259,308)"/>
<path d="M0 0 C0.66 0.33 1.32 0.66 2 1 C2 2.65 2 4.3 2 6 C1.34 6 0.68 6 0 6 C0.33 6.99 0.66 7.98 1 9 C-0.4375 12.1875 -0.4375 12.1875 -2 15 C-2.66 14.67 -3.32 14.34 -4 14 C-4.33 14.99 -4.66 15.98 -5 17 C-5.66 17 -6.32 17 -7 17 C-7.103125 17.721875 -7.20625 18.44375 -7.3125 19.1875 C-8.05986932 22.24491993 -9.28045189 24.38329635 -11 27 C-12 25 -12 25 -11.109375 22.28515625 C-10.66078125 21.22167969 -10.2121875 20.15820312 -9.75 19.0625 C-9.09257812 17.47115234 -9.09257812 17.47115234 -8.421875 15.84765625 C-7.13786225 13.27610323 -6.07334033 11.9020387 -4 10 C-3.28552357 7.89667109 -3.28552357 7.89667109 -3 6 C-2.34 6 -1.68 6 -1 6 C-0.67 4.02 -0.34 2.04 0 0 Z " fill="#B6D776" transform="translate(278,266)"/>
<path d="M0 0 C1.00935736 4.03742946 0.95111893 5.11276809 -0.14453125 8.9140625 C-0.40943359 9.83960938 -0.67433594 10.76515625 -0.94726562 11.71875 C-1.23279297 12.6778125 -1.51832031 13.636875 -1.8125 14.625 C-2.08642578 15.59179688 -2.36035156 16.55859375 -2.64257812 17.5546875 C-4.73287408 24.73287408 -4.73287408 24.73287408 -7 27 C-7.55353075 14.33029613 -7.55353075 14.33029613 -4 9 C-3.67 9 -3.34 9 -3 9 C-2.01 6.03 -1.02 3.06 0 0 Z " fill="#A2BE6D" transform="translate(355,171)"/>
<path d="M0 0 C0.99 0 1.98 0 3 0 C3.34469404 5.63000273 2.7166373 9.14886197 0 14 C-2.1875 14.9375 -2.1875 14.9375 -4 15 C-4.125 12.625 -4.125 12.625 -4 10 C-3.34 9.34 -2.68 8.68 -2 8 C-1.83312552 5.41645782 -1.83312552 5.41645782 -2 3 C-1.34 3 -0.68 3 0 3 C0 2.01 0 1.02 0 0 Z " fill="#282E33" transform="translate(212,310)"/>
<path d="M0 0 C0.33 0 0.66 0 1 0 C0.9278125 0.99257813 0.855625 1.98515625 0.78125 3.0078125 C0.21790961 11.13399765 -0.08600353 19.15555627 0.0625 27.3046875 C0 30 0 30 -1 32 C-2.875 31.75 -2.875 31.75 -5 31 C-6.3125 29.125 -6.3125 29.125 -7 27 C-6.505 25.515 -6.505 25.515 -6 24 C-5.01 25.98 -4.02 27.96 -3 30 C-2.98018066 29.30438965 -2.96036133 28.6087793 -2.93994141 27.89208984 C-2.84427876 24.71936679 -2.73476696 21.54726513 -2.625 18.375 C-2.5940625 17.28058594 -2.563125 16.18617188 -2.53125 15.05859375 C-2.33680788 9.71143541 -2.15326382 4.98926984 0 0 Z " fill="#DAE7B2" transform="translate(234,368)"/>
<path d="M0 0 C1.23435632 3.70306896 0.61556372 4.58229419 -0.87109375 8.10546875 C-1.48500977 9.57983398 -1.48500977 9.57983398 -2.11132812 11.08398438 C-2.54896484 12.10814453 -2.98660156 13.13230469 -3.4375 14.1875 C-4.0881543 15.74114258 -4.0881543 15.74114258 -4.75195312 17.32617188 C-5.8261898 19.88781318 -6.90914768 22.44540034 -8 25 C-9.14229879 21.57310364 -8.90861076 19.38897782 -8.5625 15.8125 C-8.46066406 14.72582031 -8.35882813 13.63914062 -8.25390625 12.51953125 C-8.17011719 11.68808594 -8.08632812 10.85664063 -8 10 C-7.34 10 -6.68 10 -6 10 C-5.67 9.34 -5.34 8.68 -5 8 C-4.34 8 -3.68 8 -3 8 C-3 6.68 -3 5.36 -3 4 C-2.34 4 -1.68 4 -1 4 C-0.67 2.68 -0.34 1.36 0 0 Z " fill="#B2CD78" transform="translate(252,310)"/>
<path d="M0 0 C1.40907283 2.81814566 0.50872691 4.17277204 -0.4375 7.125 C-0.72496094 8.03507812 -1.01242188 8.94515625 -1.30859375 9.8828125 C-1.53675781 10.58148438 -1.76492187 11.28015625 -2 12 C-2.99 12 -3.98 12 -5 12 C-5.2165625 13.3303125 -5.2165625 13.3303125 -5.4375 14.6875 C-5.91019978 17.47117646 -6.43070185 20.23483757 -7 23 C-7.33 21.68 -7.66 20.36 -8 19 C-8.66 19 -9.32 19 -10 19 C-8.62394084 14.23448987 -6.53221934 10.2751447 -3.875 6.125 C-3.50246094 5.53203125 -3.12992188 4.9390625 -2.74609375 4.328125 C-1.83635 2.8818657 -0.91896202 1.44041954 0 0 Z " fill="#C1D996" transform="translate(252,261)"/>
<path d="M0 0 C0.33 1.32 0.66 2.64 1 4 C0.34 4 -0.32 4 -1 4 C-1.12117188 4.60328125 -1.24234375 5.2065625 -1.3671875 5.828125 C-1.61855469 7.02695313 -1.61855469 7.02695313 -1.875 8.25 C-2.03742188 9.03890625 -2.19984375 9.8278125 -2.3671875 10.640625 C-2.99966509 12.99875132 -3.733446 14.91391107 -5 17 C-7.125 17.75 -7.125 17.75 -9 18 C-9.33 19.65 -9.66 21.3 -10 23 C-10.66 23 -11.32 23 -12 23 C-10.46688715 17.48431813 -7.81247556 12.97965148 -4.875 8.125 C-4.40707031 7.34125 -3.93914062 6.5575 -3.45703125 5.75 C-2.30981892 3.83017528 -1.1573993 1.91369439 0 0 Z " fill="#B3CD83" transform="translate(273,224)"/>
<path d="M0 0 C2.04912029 2.04912029 2.60188499 3.20941909 3.5625 5.875 C3.81128906 6.55304688 4.06007812 7.23109375 4.31640625 7.9296875 C4.97936586 9.93750802 5.5156191 11.94253445 6 14 C7.32 14 8.64 14 10 14 C10.33 13.34 10.66 12.68 11 12 C11 15.63 11 19.26 11 23 C8.1709277 20.1709277 7.62388892 19.61855575 7 16 C6.34 16 5.68 16 5 16 C0.59225513 5.62642369 0.59225513 5.62642369 0 0 Z " fill="#B0C283" transform="translate(221,376)"/>
<path d="M0 0 C1.25541557 3.76624671 0.37061958 5.37188934 -1 9 C-1.66 9 -2.32 9 -3 9 C-3.12375 9.969375 -3.2475 10.93875 -3.375 11.9375 C-3.58125 12.948125 -3.7875 13.95875 -4 15 C-4.99 15.495 -4.99 15.495 -6 16 C-6 14.68 -6 13.36 -6 12 C-7.32 13.32 -8.64 14.64 -10 16 C-8.6413032 12.51873079 -7.18120256 9.11851499 -5.5625 5.75 C-5.15128906 4.87859375 -4.74007813 4.0071875 -4.31640625 3.109375 C-3 1 -3 1 0 0 Z " fill="#C9EC86" transform="translate(278,263)"/>
<path d="M0 0 C0.33 0 0.66 0 1 0 C1 7.92 1 15.84 1 24 C0.01 24.33 -0.98 24.66 -2 25 C-2.2246285 23.60669619 -2.4289245 22.21010791 -2.625 20.8125 C-2.74101562 20.03519531 -2.85703125 19.25789063 -2.9765625 18.45703125 C-3.00453738 15.52433169 -2.11764248 13.69549068 -1 11 C-0.7240522 9.07096868 -0.51550097 7.1310968 -0.375 5.1875 C-0.26285156 3.72376953 -0.26285156 3.72376953 -0.1484375 2.23046875 C-0.09945312 1.49441406 -0.05046875 0.75835937 0 0 Z " fill="#17181B" transform="translate(206,344)"/>
<path d="M0 0 C0.33 0 0.66 0 1 0 C1 1.98 1 3.96 1 6 C0.34 6 -0.32 6 -1 6 C-1.03738281 6.61488281 -1.07476562 7.22976563 -1.11328125 7.86328125 C-1.17902344 8.67152344 -1.24476563 9.47976563 -1.3125 10.3125 C-1.37050781 11.11300781 -1.42851562 11.91351563 -1.48828125 12.73828125 C-2.09193273 15.40632863 -3.04511871 16.16729879 -5 18 C-5.7269226 21.10839021 -5.7269226 21.10839021 -6 24 C-6.33 24 -6.66 24 -7 24 C-7.14285714 15.42857143 -7.14285714 15.42857143 -6 12 C-5.34 12 -4.68 12 -4 12 C-4.0825 11.319375 -4.165 10.63875 -4.25 9.9375 C-3.90053135 5.83124335 -2.18150968 3.47678105 0 0 Z " fill="#9DC559" transform="translate(255,326)"/>
<path d="M0 0 C0.84062397 3.09773244 1.08935201 5.78332751 1 9 C0.34 9 -0.32 9 -1 9 C-1.103125 9.86625 -1.20625 10.7325 -1.3125 11.625 C-2.03398414 15.16683123 -3.27123261 17.84312042 -5 21 C-5.66 20.67 -6.32 20.34 -7 20 C-6.47493172 14.78254934 -5.2201441 10.77348889 -2.9375 6.0625 C-2.38964844 4.91910156 -1.84179688 3.77570313 -1.27734375 2.59765625 C-0.85582031 1.74042969 -0.43429688 0.88320313 0 0 Z " fill="#B8D283" transform="translate(241,280)"/>
<path d="M0 0 C0.33 0 0.66 0 1 0 C1.08676908 4.12486838 1.14031295 8.24950384 1.1875 12.375 C1.22520508 14.1384375 1.22520508 14.1384375 1.26367188 15.9375 C1.27817383 17.61972656 1.27817383 17.61972656 1.29296875 19.3359375 C1.3086792 20.37282715 1.32438965 21.4097168 1.34057617 22.47802734 C1.17199097 23.72640381 1.17199097 23.72640381 1 25 C0.01 25.66 -0.98 26.32 -2 27 C-2.125 19.375 -2.125 19.375 -1 16 C-0.95495823 13.44950979 -0.95209585 10.92350075 -1 8.375 C-1.0458188 5.90994869 -1.04709385 3.46654055 -1 1 C-0.67 0.67 -0.34 0.34 0 0 Z " fill="#93B551" transform="translate(253,400)"/>
<path d="M0 0 C0.99808262 3.21937927 1.01849014 5.84301752 0.6875 9.1875 C0.60886719 10.06792969 0.53023437 10.94835937 0.44921875 11.85546875 C0.30097656 12.56316406 0.15273437 13.27085937 0 14 C-0.99 14.495 -0.99 14.495 -2 15 C-2.61272305 17.08807 -2.61272305 17.08807 -3 19.5 C-3.4375 21.96875 -3.4375 21.96875 -4 24 C-4.66 24.33 -5.32 24.66 -6 25 C-5.52897524 16.20753786 -2.75783166 8.29384797 0 0 Z " fill="#C2DB8B" transform="translate(248,338)"/>
<path d="M0 0 C1.32 0.33 2.64 0.66 4 1 C4 1.99 4 2.98 4 4 C4.639375 4.20625 5.27875 4.4125 5.9375 4.625 C8 6 8 6 8.9375 8.9375 C8.958125 9.948125 8.97875 10.95875 9 12 C8.01 12.99 7.02 13.98 6 15 C4.02 10.05 2.04 5.1 0 0 Z " fill="#484C54" transform="translate(162,274)"/>
<path d="M0 0 C2.23310663 3.34965995 2.25646703 4.4876394 2.265625 8.40234375 C2.26820313 9.45744141 2.27078125 10.51253906 2.2734375 11.59960938 C2.26570313 12.70111328 2.25796875 13.80261719 2.25 14.9375 C2.25773437 16.03513672 2.26546875 17.13277344 2.2734375 18.26367188 C2.27085937 19.32005859 2.26828125 20.37644531 2.265625 21.46484375 C2.26336914 22.430271 2.26111328 23.39569824 2.25878906 24.39038086 C1.99015234 27.09930347 1.29763195 28.6430071 0 31 C-0.38290462 32.99110401 -0.72604615 34.99100513 -1 37 C-1.33 37 -1.66 37 -2 37 C-2.09765625 30.84765625 -2.09765625 30.84765625 -2 29 C-1.67 28.67 -1.34 28.34 -1 28 C0.16007853 22.02113375 0.1164651 16.13564956 0.0625 10.0625 C0.05798828 9.09248047 0.05347656 8.12246094 0.04882812 7.12304688 C0.0371315 4.7486324 0.02074086 2.37434979 0 0 Z " fill="#8BAF4C" transform="translate(354,144)"/>
<path d="M0 0 C0.99 0 1.98 0 3 0 C2.34496718 4.05819183 1.05440879 7.53971282 -0.5625 11.3125 C-1.01753906 12.38113281 -1.47257812 13.44976562 -1.94140625 14.55078125 C-2.46541016 15.76314453 -2.46541016 15.76314453 -3 17 C-3.33 17 -3.66 17 -4 17 C-3.67373505 10.67721029 -3.38495108 5.44535609 0 0 Z " fill="#9CB866" transform="translate(345,198)"/>
<path d="M0 0 C1.48117801 0.28127421 2.95993249 0.57533732 4.4375 0.875 C5.67306641 1.11863281 5.67306641 1.11863281 6.93359375 1.3671875 C7.61550781 1.57601562 8.29742187 1.78484375 9 2 C9.33 2.66 9.66 3.32 10 4 C9.34 4.66 8.68 5.32 8 6 C7.67 6.66 7.34 7.32 7 8 C6.34 8 5.68 8 5 8 C4.67 8.66 4.34 9.32 4 10 C2 7 2 7 2 3 C1.34 3 0.68 3 0 3 C0 2.01 0 1.02 0 0 Z " fill="#8BAD3A" transform="translate(309,88)"/>
<path d="M0 0 C0 3.19028531 -0.42483078 4.11255344 -1.96875 6.79296875 C-2.37480469 7.50517578 -2.78085937 8.21738281 -3.19921875 8.95117188 C-3.62847656 9.68916016 -4.05773437 10.42714844 -4.5 11.1875 C-5.14388672 12.31188477 -5.14388672 12.31188477 -5.80078125 13.45898438 C-6.86146221 15.30928339 -7.92998923 17.15508063 -9 19 C-10.09658936 15.71023192 -9.79953138 14.28696233 -9 11 C-8.34 11 -7.68 11 -7 11 C-6.896875 10.46375 -6.79375 9.9275 -6.6875 9.375 C-5.80571661 6.3288392 -4.58583826 3.74472006 -3 1 C-2.01 0.67 -1.02 0.34 0 0 Z " fill="#A6BF74" transform="translate(309,271)"/>
<path d="M0 0 C0.99 0.66 1.98 1.32 3 2 C2.7525 2.66 2.505 3.32 2.25 4 C1.88501385 8.37983382 3.84903871 11.27966781 6 15 C5.01 16.485 5.01 16.485 4 18 C2.9932996 15.73192796 1.99448234 13.46092246 1 11.1875 C0.71382812 10.54490234 0.42765625 9.90230469 0.1328125 9.24023438 C-1.13711041 6.32243531 -2 4.21734286 -2 1 C-1.34 0.67 -0.68 0.34 0 0 Z " fill="#494D54" transform="translate(157,255)"/>
<path d="M0 0 C0.66 0 1.32 0 2 0 C2 1.98 2 3.96 2 6 C1.34 6 0.68 6 0 6 C-0.268125 7.258125 -0.53625 8.51625 -0.8125 9.8125 C-1.59532537 12.99448801 -2.25335928 15.00244311 -5 17 C-5.7342166 10.24520726 -3.27591952 5.81475715 0 0 Z " fill="#98C256" transform="translate(271,283)"/>
<path d="M0 0 C0.99 0.33 1.98 0.66 3 1 C5.34551123 5.93791838 5.2134222 10.66444505 5 16 C3.0549 13.08235 2.54723683 11.37462715 2 8 C1.34 8 0.68 8 0 8 C0 5.36 0 2.72 0 0 Z " fill="#9FB866" transform="translate(220,368)"/>
<path d="M0 0 C1 2 1 2 0.00390625 5.2578125 C-0.46889984 6.5497052 -0.94971969 7.83868638 -1.4375 9.125 C-1.68048828 9.78371094 -1.92347656 10.44242187 -2.17382812 11.12109375 C-2.77578321 12.74991338 -3.38702412 14.37529575 -4 16 C-4.33 16 -4.66 16 -5 16 C-5.76681614 6.26995516 -5.76681614 6.26995516 -3.88671875 3.15625 C-2.5 1.8125 -2.5 1.8125 0 0 Z " fill="#AFC67E" transform="translate(273,342)"/>
<path d="M0 0 C0.66 0.66 1.32 1.32 2 2 C1.6730244 4.61580479 1.17960932 6.64078137 0 9 C-1.32 9 -2.64 9 -4 9 C-4 10.65 -4 12.3 -4 14 C-4.99 14 -5.98 14 -7 14 C-5.53967505 8.68972746 -3.01679014 4.53669968 0 0 Z " fill="#A8C77B" transform="translate(260,247)"/>
<path d="M0 0 C0 5.54551543 -2.22140174 10.79124794 -4 16 C-4.66 16 -5.32 16 -6 16 C-6.33 16.99 -6.66 17.98 -7 19 C-6.125 14.25 -6.125 14.25 -5 12 C-4.7834375 10.329375 -4.7834375 10.329375 -4.5625 8.625 C-4.08192809 5.52798105 -3.68856427 3.58251007 -2 1 C-1.34 0.67 -0.68 0.34 0 0 Z " fill="#97BD56" transform="translate(231,312)"/>
<path d="M0 0 C0.99 0.33 1.98 0.66 3 1 C1.02 4.63 -0.96 8.26 -3 12 C-3.66 11.01 -4.32 10.02 -5 9 C-4.11644276 5.1444775 -3.08943092 2.52771621 0 0 Z " fill="#A4C071" transform="translate(314,259)"/>
<path d="M0 0 C0.33 0.66 0.66 1.32 1 2 C4.02934491 2.65772428 4.02934491 2.65772428 7 3 C6.49396008 5.16874252 6.00016187 6.99967627 5 9 C5.66 9.33 6.32 9.66 7 10 C6.34 11.32 5.68 12.64 5 14 C4.15973604 12.23244474 3.32801278 10.46082737 2.5 8.6875 C2.0359375 7.70136719 1.571875 6.71523438 1.09375 5.69921875 C0 3 0 3 0 0 Z " fill="#585B63" transform="translate(192,342)"/>
<path d="M0 0 C0.99 0.33 1.98 0.66 3 1 C1.68938409 5.23429756 0.05643741 9.07407404 -2 13 C-2.33 13 -2.66 13 -3 13 C-3 4.625 -3 4.625 0 0 Z " fill="#A0BF67" transform="translate(291,298)"/>
<path d="M0 0 C5.38191955 3.58794636 8.49004873 8.69967012 12 14 C11.67 14.66 11.34 15.32 11 16 C6.27353687 12.43619625 3.42465054 9.95762953 2 4 C1.36184656 2.65278717 0.70674629 1.31252882 0 0 Z " fill="#BDD795" transform="translate(335,103)"/>
<path d="M0 0 C0.66 0 1.32 0 2 0 C1.67 2.97 1.34 5.94 1 9 C0.34 8.67 -0.32 8.34 -1 8 C-0.67 5.36 -0.34 2.72 0 0 Z M-2 9 C-1.34 9.33 -0.68 9.66 0 10 C-0.61919078 11.46080933 -1.24556692 12.91857455 -1.875 14.375 C-2.22304687 15.18710937 -2.57109375 15.99921875 -2.9296875 16.8359375 C-4 19 -4 19 -6 21 C-5.33501617 16.61110675 -3.81242323 13.0188515 -2 9 Z " fill="#99C153" transform="translate(242,280)"/>
<path d="M0 0 C0.99 0 1.98 0 3 0 C3.69685498 1.6210103 4.38222861 3.24696066 5.0625 4.875 C5.63677734 6.23238281 5.63677734 6.23238281 6.22265625 7.6171875 C7 10 7 10 6 12 C4.68 10.68 3.36 9.36 2 8 C2.33 7.34 2.66 6.68 3 6 C2.34 6 1.68 6 1 6 C0.67 4.02 0.34 2.04 0 0 Z " fill="#42474A" transform="translate(207,257)"/>
<path d="M0 0 C0 3.93974955 -1.47789475 5.82936093 -3.5 9.1875 C-4.47453125 10.81751953 -4.47453125 10.81751953 -5.46875 12.48046875 C-6.22671875 13.72763672 -6.22671875 13.72763672 -7 15 C-7.5534764 12.92446352 -8 11.15634036 -8 9 C-7.01 9 -6.02 9 -5 9 C-4.9175 7.88625 -4.835 6.7725 -4.75 5.625 C-4 2 -4 2 -1.9375 0.5625 C-1.298125 0.376875 -0.65875 0.19125 0 0 Z " fill="#B3CB84" transform="translate(325,244)"/>
<path d="M0 0 C0.99 0.33 1.98 0.66 3 1 C2.27637073 7.39205856 1.19656638 13.68027076 0 20 C-0.33 20 -0.66 20 -1 20 C-0.67 13.4 -0.34 6.8 0 0 Z " fill="#C1D790" transform="translate(236,347)"/>
<path d="M0 0 C0.66 0 1.32 0 2 0 C1.69217504 1.64671412 1.37860766 3.29235576 1.0625 4.9375 C0.88847656 5.85402344 0.71445313 6.77054687 0.53515625 7.71484375 C0 10 0 10 -1 11 C-1.23427778 13.01594582 -1.41336124 15.038474 -1.5625 17.0625 C-1.64628906 18.16722656 -1.73007813 19.27195312 -1.81640625 20.41015625 C-1.87699219 21.26480469 -1.93757812 22.11945313 -2 23 C-2.33 23 -2.66 23 -3 23 C-3.55353075 7.25512528 -3.55353075 7.25512528 0 0 Z " fill="#A2C065" transform="translate(222,342)"/>
<path d="M0 0 C0.66 0 1.32 0 2 0 C2.2358396 5.77807024 1.86783046 10.51324804 0 16 C-0.33 16 -0.66 16 -1 16 C-1.02712153 14.083412 -1.04645097 12.1667127 -1.0625 10.25 C-1.07410156 9.18265625 -1.08570313 8.1153125 -1.09765625 7.015625 C-1.01510087 4.46631499 -0.74617558 2.42066409 0 0 Z " fill="#B3CD7F" transform="translate(221,333)"/>
<path d="M0 0 C-1.31061591 4.23429756 -2.94356259 8.07407404 -5 12 C-5.33 12 -5.66 12 -6 12 C-6.48979592 4.65306122 -6.48979592 4.65306122 -4.125 1.5 C-2 0 -2 0 0 0 Z " fill="#A2BD6F" transform="translate(341,215)"/>
<path d="M0 0 C3.465 1.98 3.465 1.98 7 4 C6.01 4.495 6.01 4.495 5 5 C4.01 4.67 3.02 4.34 2 4 C2.33 6.31 2.66 8.62 3 11 C0.17661571 7.8083482 -0.62384955 5.23169259 -1 1 C-0.67 0.67 -0.34 0.34 0 0 Z " fill="#C4D099" transform="translate(305,80)"/>
<path d="M0 0 C1.32 0 2.64 0 4 0 C4.144375 0.598125 4.28875 1.19625 4.4375 1.8125 C4.8872439 3.56150404 5.42892341 5.28677023 6 7 C5.5625 9.6875 5.5625 9.6875 5 12 C2.32522069 9.32522069 1.3535886 6.507025 0 3 C0 2.01 0 1.02 0 0 Z " fill="#575B62" transform="translate(184,323)"/>
<path d="M0 0 C1.07079018 3.21237053 0.95713639 4.9395555 -0.3125 8.0625 C-0.57675781 8.73410156 -0.84101563 9.40570313 -1.11328125 10.09765625 C-2 12 -2 12 -4 15 C-4.66 15 -5.32 15 -6 15 C-4.36041242 9.76727367 -2.61047965 4.84803364 0 0 Z " fill="#B1C982" transform="translate(298,176)"/>
<path d="M0 0 C0.99 0 1.98 0 3 0 C2.38722388 2.96175123 1.74627478 4.38058783 0 7 C-0.66 7 -1.32 7 -2 7 C-2.33 8.65 -2.66 10.3 -3 12 C-3.66 12 -4.32 12 -5 12 C-4.34 9.69 -3.68 7.38 -3 5 C-2.01 5 -1.02 5 0 5 C0 3.35 0 1.7 0 0 Z " fill="#91B854" transform="translate(256,256)"/>
<path d="M0 0 C0.33 0 0.66 0 1 0 C2.0070238 5.03511899 1.97387813 8.23947038 0 13 C-1.66666667 9.66666667 -3.33333333 6.33333333 -5 3 C-4.01 2.34 -3.02 1.68 -2 1 C-1.67 2.32 -1.34 3.64 -1 5 C-0.67 3.35 -0.34 1.7 0 0 Z " fill="#89AF42" transform="translate(251,411)"/>
<path d="M0 0 C0.66 0.33 1.32 0.66 2 1 C2.3125 3.1875 2.3125 3.1875 2 6 C-0.5 8.8125 -0.5 8.8125 -3 11 C-2.53199289 6.94393835 -2.12046792 3.53411321 0 0 Z " fill="#96BF59" transform="translate(234,300)"/>
<path d="M0 0 C0.33 0 0.66 0 1 0 C1 2.64 1 5.28 1 8 C0.01 8.33 -0.98 8.66 -2 9 C-3.22520264 12.00847418 -3.22520264 12.00847418 -4 15 C-5.32830615 11.01508155 -4.23204404 9.59951452 -2.5625 5.8125 C-2.08941406 4.72582031 -1.61632812 3.63914062 -1.12890625 2.51953125 C-0.75636719 1.68808594 -0.38382812 0.85664063 0 0 Z " fill="#CDE599" transform="translate(265,293)"/>
<path d="M0 0 C0.33 0.66 0.66 1.32 1 2 C0.01 3.485 0.01 3.485 -1 5 C-1.33 5.99 -1.66 6.98 -2 8 C-3 11 -3 11 -5 14 C-5.66 14 -6.32 14 -7 14 C-6.54554036 12.58208592 -6.08625056 11.16571954 -5.625 9.75 C-5.24214844 8.56664062 -5.24214844 8.56664062 -4.8515625 7.359375 C-2.67878788 1.33939394 -2.67878788 1.33939394 0 0 Z " fill="#92B84E" transform="translate(301,177)"/>
<path d="M0 0 C0.66 0.33 1.32 0.66 2 1 C1.67 2.65 1.34 4.3 1 6 C0.01 6 -0.98 6 -2 6 C-1.938125 6.7425 -1.87625 7.485 -1.8125 8.25 C-2.03094296 11.45383006 -2.90250005 12.64031256 -5 15 C-5 12.69 -5 10.38 -5 8 C-4.34 8 -3.68 8 -3 8 C-2.67 6.35 -2.34 4.7 -2 3 C-1.34 3 -0.68 3 0 3 C0 2.01 0 1.02 0 0 Z " fill="#94B64F" transform="translate(287,305)"/>
<path d="M0 0 C1.39195915 4.17587745 -0.17676781 6.13474776 -2 10 C-2.33 8.68 -2.66 7.36 -3 6 C-3.99 6 -4.98 6 -6 6 C-6 5.01 -6 4.02 -6 3 C-5.195625 2.87625 -4.39125 2.7525 -3.5625 2.625 C-2.716875 2.41875 -1.87125 2.2125 -1 2 C-0.67 1.34 -0.34 0.68 0 0 Z " fill="#535558" transform="translate(218,304)"/>
<path d="M0 0 C1.9451 2.91765 2.45276317 4.62537285 3 8 C2.01 8.66 1.02 9.32 0 10 C0 9.01 0 8.02 0 7 C-0.99 6.67 -1.98 6.34 -3 6 C-2.01 4.02 -1.02 2.04 0 0 Z " fill="#3B3E43" transform="translate(203,242)"/>
<path d="M0 0 C0.33 0 0.66 0 1 0 C1 1.98 1 3.96 1 6 C0.34 6 -0.32 6 -1 6 C-1.33 8.31 -1.66 10.62 -2 13 C-2.99 13.33 -3.98 13.66 -5 14 C-4.67 12.35 -4.34 10.7 -4 9 C-3.34 9 -2.68 9 -2 9 C-2.04125 8.071875 -2.0825 7.14375 -2.125 6.1875 C-2 3 -2 3 0 0 Z " fill="#9FC069" transform="translate(276,219)"/>
<path d="M0 0 C3.42931954 3.7559214 4.56429083 8.23466745 6 13 C5.34 12.67 4.68 12.34 4 12 C4 11.34 4 10.68 4 10 C3.01 9.67 2.02 9.34 1 9 C0.67 6.03 0.34 3.06 0 0 Z " fill="#B3CE88" transform="translate(347,119)"/>
<path d="M0 0 C0.99 0.33 1.98 0.66 3 1 C2.53199289 5.05606165 2.12046792 8.46588679 0 12 C-1.28571429 3.42857143 -1.28571429 3.42857143 0 0 Z " fill="#B7CD89" transform="translate(260,372)"/>
<path d="M0 0 C0.66 0 1.32 0 2 0 C1.34 4.29 0.68 8.58 0 13 C-0.99 12.67 -1.98 12.34 -3 12 C-2.69106068 10.3743193 -2.3777305 8.74947252 -2.0625 7.125 C-1.88847656 6.22007812 -1.71445312 5.31515625 -1.53515625 4.3828125 C-1 2 -1 2 0 0 Z " fill="#95B650" transform="translate(263,360)"/>
<path d="M0 0 C1 3 1 3 0.22265625 5.04296875 C-0.16019531 5.75066406 -0.54304688 6.45835937 -0.9375 7.1875 C-1.31777344 7.90292969 -1.69804687 8.61835938 -2.08984375 9.35546875 C-2.54037109 10.16951172 -2.54037109 10.16951172 -3 11 C-3.66 11 -4.32 11 -5 11 C-5 9.35 -5 7.7 -5 6 C-4.34 6 -3.68 6 -3 6 C-3 5.01 -3 4.02 -3 3 C-1.5 1.3125 -1.5 1.3125 0 0 Z " fill="#B3CE72" transform="translate(267,278)"/>
<path d="M0 0 C1.40416706 2.62111184 2.6169847 5.03163146 3 8 C2.01 9.485 2.01 9.485 1 11 C-2 4.375 -2 4.375 -2 1 C-1.34 0.67 -0.68 0.34 0 0 Z " fill="#535B60" transform="translate(136,207)"/>
<path d="M0 0 C0.33 0.66 0.66 1.32 1 2 C2.32 1.67 3.64 1.34 5 1 C4.67 3.64 4.34 6.28 4 9 C1.4375 6.75 1.4375 6.75 -1 4 C-0.8125 1.6875 -0.8125 1.6875 0 0 Z " fill="#3F464B" transform="translate(207,323)"/>
<path d="M0 0 C1.40907283 2.81814566 0.50872691 4.17277204 -0.4375 7.125 C-0.72496094 8.03507812 -1.01242188 8.94515625 -1.30859375 9.8828125 C-1.53675781 10.58148438 -1.76492187 11.28015625 -2 12 C-2.99 11.67 -3.98 11.34 -5 11 C-4.35731563 9.35293447 -3.71076198 7.70737825 -3.0625 6.0625 C-2.70285156 5.14597656 -2.34320313 4.22945313 -1.97265625 3.28515625 C-1 1 -1 1 0 0 Z " fill="#B0CA80" transform="translate(252,261)"/>
<path d="M0 0 C0.99 0.33 1.98 0.66 3 1 C1.55049545 4.7910119 -0.15172566 8.3874638 -2 12 C-3.04449911 8.86650268 -2.93423645 8.01031744 -2 5 C-1.34 5 -0.68 5 0 5 C0 3.35 0 1.7 0 0 Z " fill="#B5C987" transform="translate(329,232)"/>
<path d="M0 0 C0.66 0 1.32 0 2 0 C2.625 1.8125 2.625 1.8125 3 4 C2.01 5.485 2.01 5.485 1 7 C0.01 7 -0.98 7 -2 7 C-1.125 1.125 -1.125 1.125 0 0 Z " fill="#91B84D" transform="translate(315,253)"/>
<path d="M0 0 C4.28477792 2.30718811 7.72291137 4.32966073 11 8 C7.625 7.75 7.625 7.75 4 7 C2.6875 5 2.6875 5 2 3 C1.34 2.67 0.68 2.34 0 2 C0 1.34 0 0.68 0 0 Z " fill="#B5D188" transform="translate(316,88)"/>
<path d="M0 0 C0.66 0 1.32 0 2 0 C3.32 2.64 4.64 5.28 6 8 C5.01 9.485 5.01 9.485 4 11 C2.68 7.37 1.36 3.74 0 0 Z " fill="#606167" transform="translate(157,262)"/>
<path d="M0 0 C2.34914492 2.34914492 2.73140357 3.95679446 3.625 7.125 C3.88539063 8.03507813 4.14578125 8.94515625 4.4140625 9.8828125 C4.70410156 10.93082031 4.70410156 10.93082031 5 12 C4.34 11.67 3.68 11.34 3 11 C3 10.34 3 9.68 3 9 C2.01 8.67 1.02 8.34 0 8 C0 5.36 0 2.72 0 0 Z " fill="#5B5C60" transform="translate(181,188)"/>
<path d="M0 0 C1.9375 0.3125 1.9375 0.3125 4 1 C4.33 1.99 4.66 2.98 5 4 C4.01 4.33 3.02 4.66 2 5 C1.67 5.66 1.34 6.32 1 7 C0.67 4.69 0.34 2.38 0 0 Z " fill="#87B32E" transform="translate(312,91)"/>
<path d="M0 0 C0.33 0 0.66 0 1 0 C1.08131463 1.43655854 1.13933559 2.8744483 1.1875 4.3125 C1.23970703 5.51326172 1.23970703 5.51326172 1.29296875 6.73828125 C0.93801608 9.47851584 0.10633718 10.29171079 -2 12 C-1.85831863 10.56208484 -1.71148957 9.1246763 -1.5625 7.6875 C-1.48128906 6.88699219 -1.40007812 6.08648437 -1.31640625 5.26171875 C-1 3 -1 3 0 0 Z " fill="#C8E299" transform="translate(244,351)"/>
<path d="M0 0 C0.33 0 0.66 0 1 0 C1.33 2.64 1.66 5.28 2 8 C1.01 8 0.02 8 -1 8 C-1.66 8.99 -2.32 9.98 -3 11 C-2.32829194 7.1936543 -1.27253436 3.64793184 0 0 Z " fill="#A1C75E" transform="translate(275,272)"/>
<path d="M0 0 C-0.66 1.65 -1.32 3.3 -2 5 C-2.66 5 -3.32 5 -4 5 C-4 5.99 -4 6.98 -4 8 C-4.99 8 -5.98 8 -7 8 C-7 7.34 -7 6.68 -7 6 C-6.34 6 -5.68 6 -5 6 C-4.87625 5.195625 -4.7525 4.39125 -4.625 3.5625 C-4.41875 2.716875 -4.2125 1.87125 -4 1 C-2 0 -2 0 0 0 Z " fill="#8EB752" transform="translate(268,241)"/>
<path d="M0 0 C0.66 0 1.32 0 2 0 C2 0.99 2 1.98 2 3 C1.34 3 0.68 3 0 3 C-0.12375 4.134375 -0.2475 5.26875 -0.375 6.4375 C-0.58125 7.613125 -0.7875 8.78875 -1 10 C-1.99 10.495 -1.99 10.495 -3 11 C-3.39253254 6.55129785 -2.15305957 3.85756507 0 0 Z " fill="#91B255" transform="translate(327,234)"/>
<path d="M0 0 C0.66 0.66 1.32 1.32 2 2 C1.625 5.125 1.625 5.125 1 8 C0.34 8 -0.32 8 -1 8 C-1.625 5.125 -1.625 5.125 -2 2 C-1.34 1.34 -0.68 0.68 0 0 Z " fill="#1A2029" transform="translate(199,347)"/>
<path d="M0 0 C0.33 0 0.66 0 1 0 C1 2.31 1 4.62 1 7 C-0.32 7 -1.64 7 -3 7 C-2.67 5.68 -2.34 4.36 -2 3 C-1.34 3 -0.68 3 0 3 C0 2.01 0 1.02 0 0 Z " fill="#12181D" transform="translate(221,290)"/>
<path d="M0 0 C0.99 0 1.98 0 3 0 C1.80100302 3.0831351 0.52299523 6.06279492 -1 9 C-2.60031344 5.79937313 -1.03173691 3.27728194 0 0 Z " fill="#AEC47D" transform="translate(296,290)"/>
<path d="M0 0 C0.93423645 3.01031744 1.04449911 3.86650268 0 7 C-1.32 7 -2.64 7 -4 7 C-2.92598892 4.08482708 -2.22189824 2.22189824 0 0 Z " fill="#B0DB64" transform="translate(281,257)"/>
<path d="M0 0 C0.66 0 1.32 0 2 0 C2.3125 2.8125 2.3125 2.8125 2 6 C-0.5 7.875 -0.5 7.875 -3 9 C-3 7 -3 7 -1 5 C-0.35232207 2.42938689 -0.35232207 2.42938689 0 0 Z " fill="#90B64B" transform="translate(291,194)"/>
<path d="M0 0 C5.75 3.625 5.75 3.625 8 7 C5.125 6.3125 5.125 6.3125 2 5 C0.625 2.375 0.625 2.375 0 0 Z " fill="#BCD291" transform="translate(327,96)"/>
<path d="M0 0 C3 1 3 1 4 3 C4.66 2.67 5.32 2.34 6 2 C6 3.98 6 5.96 6 8 C5.67 7.34 5.34 6.68 5 6 C4.01 5.67 3.02 5.34 2 5 C0.8125 2.4375 0.8125 2.4375 0 0 Z " fill="#97AF67" transform="translate(248,423)"/>
<path d="M0 0 C0.33 0 0.66 0 1 0 C0.67 4.62 0.34 9.24 0 14 C-0.33 14 -0.66 14 -1 14 C-1.22331199 12.41870971 -1.42804644 10.83478911 -1.625 9.25 C-1.74101562 8.36828125 -1.85703125 7.4865625 -1.9765625 6.578125 C-2.00207817 3.77140122 -1.44843844 2.36615134 0 0 Z " fill="#A2BE66" transform="translate(235,354)"/>
<path d="M0 0 C1.32 0.33 2.64 0.66 4 1 C4 1.99 4 2.98 4 4 C4.99 4.66 5.98 5.32 7 6 C6.01 6 5.02 6 4 6 C3.67 6.66 3.34 7.32 3 8 C2.01 5.36 1.02 2.72 0 0 Z " fill="#5D6167" transform="translate(162,274)"/>
<path d="M0 0 C1.99097846 2.98646769 2.94124926 5.59687262 4 9 C2.0625 8.1875 2.0625 8.1875 0 7 C-1.04449911 3.86650268 -0.93423645 3.01031744 0 0 Z " fill="#55575A" transform="translate(198,230)"/>
<path d="M0 0 C0.33 0 0.66 0 1 0 C1 1.98 1 3.96 1 6 C-0.98 6.99 -0.98 6.99 -3 8 C-2.25 2.25 -2.25 2.25 0 0 Z " fill="#90B74F" transform="translate(307,160)"/>
<path d="M0 0 C2.0343459 1.41519715 2.90410393 2.54982123 3.421875 4.98046875 C3.66273952 6.98176954 3.83532741 8.9909944 4 11 C0.85041169 7.57653445 0.43820891 4.55737263 0 0 Z " fill="#8CB355" transform="translate(350,129)"/>
<path d="M0 0 C0.33 0 0.66 0 1 0 C1.17835515 4.54805635 0.99785435 7.8794254 -1 12 C-1.33 12 -1.66 12 -2 12 C-1.85831863 10.56208484 -1.71148957 9.1246763 -1.5625 7.6875 C-1.48128906 6.88699219 -1.40007812 6.08648437 -1.31640625 5.26171875 C-1 3 -1 3 0 0 Z " fill="#C0D38E" transform="translate(234,368)"/>
<path d="M0 0 C0.66 0.99 1.32 1.98 2 3 C1.34 4.32 0.68 5.64 0 7 C-0.99 6.67 -1.98 6.34 -3 6 C-2.34 5.67 -1.68 5.34 -1 5 C-1.33 4.01 -1.66 3.02 -2 2 C-1.34 1.34 -0.68 0.68 0 0 Z " fill="#1A2128" transform="translate(214,273)"/>
<path d="M0 0 C0.33 0 0.66 0 1 0 C1 2.31 1 4.62 1 7 C0.01 7 -0.98 7 -2 7 C-2.33 6.01 -2.66 5.02 -3 4 C-1.625 1.8125 -1.625 1.8125 0 0 Z " fill="#868484" transform="translate(208,370)"/>
<path d="M0 0 C3 3.75 3 3.75 3 6 C2.01 6.33 1.02 6.66 0 7 C-1.04449911 3.86650268 -0.93423645 3.01031744 0 0 Z " fill="#15181F" transform="translate(218,283)"/>
<path d="M0 0 C0.66 0 1.32 0 2 0 C1.71872579 1.48117801 1.42466268 2.95993249 1.125 4.4375 C0.96257812 5.26121094 0.80015625 6.08492188 0.6328125 6.93359375 C0.31957031 7.95646484 0.31957031 7.95646484 0 9 C-0.99 9.495 -0.99 9.495 -2 10 C-1.34 6.7 -0.68 3.4 0 0 Z " fill="#DFF79D" transform="translate(274,269)"/>
<path d="M0 0 C0.66 0.33 1.32 0.66 2 1 C2 2.65 2 4.3 2 6 C1.01 6.33 0.02 6.66 -1 7 C-1.04254356 5.00045254 -1.04080783 2.99958364 -1 1 C-0.67 0.67 -0.34 0.34 0 0 Z " fill="#8DB350" transform="translate(308,265)"/>
<path d="M0 0 C1.98 1.65 3.96 3.3 6 5 C5.67 6.32 5.34 7.64 5 9 C4.16094435 7.87926138 3.32892169 6.75325453 2.5 5.625 C2.0359375 4.99851562 1.571875 4.37203125 1.09375 3.7265625 C0 2 0 2 0 0 Z " fill="#91B753" transform="translate(341,114)"/>
</svg>
