<?xml version="1.0" encoding="utf-8"?>
<svg viewBox="0 0 500 500" xmlns="http://www.w3.org/2000/svg">
  <path d="M 388.937 12.263 C 412.742 33.314 432.534 61.512 436.137 95.966 C 436.88 106.122 436.137 115.429 434.359 125.462 C 433.961 127.707 433.961 127.707 433.556 129.998 C 423.367 183.187 383.464 228.83 351.53 268.513 C 319.359 308.537 290.375 351.775 270.698 399.803 C 270.633 400.381 270.563 400.926 270.489 401.433 C 270.041 404.514 269.423 406.435 268.11 408.893 C 267.446 410.137 266.61 411.479 265.655 412.778 C 258.993 430.904 253.688 449.71 250.044 469.274 C 248.466 468.978 246.886 468.681 245.259 468.377 C 239.741 451.495 237.384 436.472 237.767 421.786 C 236.526 421.374 235.353 420.821 234.093 420.086 C 233.205 419.569 232.273 418.966 231.344 418.287 C 231.073 418.834 230.677 419.411 230.029 420.365 C 227.891 419.768 227.891 419.768 225.472 418.144 C 223.807 413.581 222.517 408.89 221.573 404.116 C 221.355 403.397 221.164 402.666 221.009 401.93 C 220.527 399.662 220.195 397.099 220.138 394.489 C 218.06 374.163 221.658 352.923 228.727 334.089 C 242.632 298.925 262.394 266.568 285.649 238.009 C 289.533 233.164 293.272 228.18 297.031 223.218 C 298.663 221.062 300.296 218.908 301.931 216.753 C 302.74 215.683 303.555 214.613 304.389 213.511 C 306.7 210.471 309.028 207.444 311.358 204.419 C 360.804 141.252 360.804 141.252 387.782 64.902 C 388.245 62.475 388.245 62.475 388.715 60 C 390.968 47.081 390.995 35.246 387.575 22.691 C 386.47 18.116 386.906 16.405 388.937 12.263 Z" style="vector-effect: non-scaling-stroke; stroke-width: 0px; fill: rgb(16, 72, 7); paint-order: fill; transform-origin: 253.165px 157.087px;"/>
  <path d="M 83.057 55.558 C 92.533 55.715 102.008 55.884 111.486 56.06 C 114.712 56.118 117.938 56.173 121.165 56.227 C 125.794 56.304 130.423 56.391 135.05 56.479 C 136.5 56.501 137.951 56.524 139.445 56.548 C 140.783 56.574 142.121 56.601 143.499 56.627 C 144.682 56.65 145.863 56.67 147.082 56.691 C 149.913 56.906 149.913 56.906 152.344 58.251 C 153.392 60.791 154.331 63.388 155.217 66.001 C 156.07 68.485 156.07 68.485 156.939 71.023 C 157.242 71.916 157.545 72.808 157.855 73.727 C 159.481 78.523 161.135 83.305 162.789 88.09 C 163.133 89.082 163.475 90.075 163.829 91.096 C 167.302 101.136 170.934 111.1 174.603 121.053 C 174.929 121.932 175.252 122.814 175.586 123.719 C 176.926 127.357 178.267 130.996 179.61 134.634 C 182.121 141.436 184.613 148.245 187.103 155.057 C 187.654 156.574 187.654 156.574 188.22 158.123 C 188.977 160.189 189.729 162.254 190.483 164.318 C 198.543 186.385 206.663 208.422 214.837 230.435 C 215.587 232.461 216.333 234.489 217.077 236.518 C 218.949 241.619 220.889 246.666 222.961 251.672 C 230.312 269.695 230.312 269.695 227.633 277.776 C 227.258 278.673 226.88 279.57 226.493 280.496 C 226.135 281.544 225.776 282.593 225.409 283.672 C 224.239 287.054 222.983 290.38 221.707 293.713 C 213.177 316.717 210.272 339.033 210.539 363.754 C 210.551 365.751 210.562 367.747 210.573 369.743 C 210.599 374.566 210.639 379.387 210.692 384.21 C 209.487 384.21 208.283 384.21 207.044 384.21 C 206.724 383.377 206.402 382.546 206.072 381.687 C 180.867 316.371 155.447 251.147 129.628 186.125 C 121.937 166.758 114.343 147.355 106.857 127.89 C 104.637 122.119 102.4 116.356 100.164 110.593 C 98.92 107.385 97.678 104.176 96.434 100.97 C 95.631 98.899 94.83 96.832 94.026 94.762 C 92.201 90.065 90.385 85.365 88.582 80.658 C 87.423 77.642 86.249 74.63 85.051 71.632 C 84.592 70.458 84.136 69.282 83.664 68.069 C 83.276 67.095 82.887 66.124 82.485 65.121 C 81.676 61.57 82.338 59.094 83.057 55.558 Z" style="fill: rgb(81, 51, 4);"/>
  <path stroke-width="0" d="M 231.547 383.128 C 232.639 383.168 234.347 383.649 235.882 384.303 C 235.435 383.027 235.099 381.78 235.234 380.743 C 235.507 378.639 237.21 376.426 238.487 375.322 C 239.518 374.43 240.533 373.969 241.956 374.02 C 243.863 374.09 247.309 374.979 249.113 376.84 C 251.172 378.964 252.354 383.273 253.016 386.815 C 253.702 390.486 253.334 393.691 253.016 398.525 C 252.586 405.063 251.77 417.265 249.98 423.247 C 249.513 424.808 249.009 426.24 248.45 427.515 C 250.838 432.104 253.065 436.271 253.884 438.861 C 254.835 441.867 255.098 443.069 254.751 444.933 C 254.413 446.747 253.365 448.8 251.932 449.92 C 250.441 451.085 247.733 451.87 245.86 451.655 C 244.058 451.449 242.771 451.191 240.872 448.836 C 236.864 443.865 228.208 425.483 225.692 415.006 C 223.537 406.034 223.734 394.907 224.825 389.851 C 225.452 386.942 226.801 385.534 228.078 384.43 C 229.109 383.538 230.124 383.077 231.547 383.128 Z" style="stroke-width: 2px; fill: rgb(16, 72, 7); paint-order: fill;"/>
</svg>