<svg xmlns="http://www.w3.org/2000/svg" width="32" height="32" viewBox="0 0 32 32" id="refrigerated-truck"><path fill="#0bf" d="M2,4H21a1,1,0,0,1,1,1V17a0,0,0,0,1,0,0H1a0,0,0,0,1,0,0V5A1,1,0,0,1,2,4Z"></path><line x1="21" x2="14" y1="24" y2="24" fill="none" stroke="#000" stroke-linecap="round" stroke-linejoin="round" stroke-width="2"></line><circle cx="8" cy="25" r="3" fill="none" stroke="#000" stroke-linecap="round" stroke-linejoin="round" stroke-width="2"></circle><circle cx="24" cy="25" r="3" fill="none" stroke="#000" stroke-linecap="round" stroke-linejoin="round" stroke-width="2"></circle><path fill="none" stroke="#000" stroke-linecap="round" stroke-linejoin="round" stroke-width="2" d="M23 7h4.4a3 3 0 013 2.58L31 14v9a1 1 0 01-1 1H27M5 24H2.5A1.5 1.5 0 011 22.5V5A1 1 0 012 4H21a1 1 0 011 1V17H2"></path><polyline fill="none" stroke="#000" stroke-linecap="round" stroke-linejoin="round" stroke-width="2" points="25 8 25 14 30 14"></polyline><line x1="30" x2="29" y1="21" y2="21" fill="none" stroke="#000" stroke-linecap="round" stroke-linejoin="round" stroke-width="2"></line></svg>