<svg height="200px" width="200px" version="1.1" id="Capa_1" xmlns="http://www.w3.org/2000/svg" xmlns:xlink="http://www.w3.org/1999/xlink" viewBox="0 0 462.36 462.36" xml:space="preserve" fill="#000000"><g id="SVGRepo_bgCarrier" stroke-width="0"></g><g id="SVGRepo_tracerCarrier" stroke-linecap="round" stroke-linejoin="round"></g><g id="SVGRepo_iconCarrier"> <g> <path style="fill:#ba41fb;" d="M161.057,132.039c-75.094,0-136.663,58.987-140.826,133.058 c4.162,74.071,65.732,133.057,140.826,133.057h167.072c21.398,0,39.192-15.386,42.952-35.696 c-3.76-20.31-21.553-35.696-42.952-35.696H161.057c-29.592,0-53.666-24.075-53.666-53.666c0-2.718,0.207-5.389,0.599-8 c-0.392-2.611-0.599-5.282-0.599-8c0-29.591,24.074-53.666,53.666-53.666H313.8c0,0,0,6.485,0,16c0,0,0,6.613,0,16.279 c0,7.619,4.324,14.578,11.156,17.951c2.806,1.385,5.832,2.065,8.845,2.065c4.323,0,8.617-1.401,12.183-4.129l82.151-62.839 c6.806-5.206,11.468-12.594,13.323-20.789c-1.855-8.193-6.516-15.581-13.32-20.787l-82.154-62.855 c-6.05-4.628-14.203-5.423-21.032-2.049c-6.83,3.374-11.153,10.332-11.153,17.949v15.813v16H161.057z"></path> <g> <path style="fill:#6d179b;" d="M333.818,64.206c4.318,0,8.607,1.396,12.167,4.12l82.154,62.855 c8.964,6.859,14.222,17.502,14.221,28.789c-0.001,11.287-5.259,21.93-14.224,28.787l-82.151,62.839 c-3.567,2.728-7.86,4.129-12.183,4.129c-3.012,0-6.039-0.68-8.845-2.065c-6.832-3.373-11.156-10.332-11.156-17.951 c0-17.604,0-32.279,0-32.279H161.057c-29.591,0-53.666,24.075-53.666,53.666c0,29.591,24.074,53.666,53.666,53.666h167.072 c24.132,0,43.696,19.563,43.696,43.696s-19.563,43.696-43.696,43.696H161.057C83.278,398.154,20,334.876,20,257.097 c0-77.779,63.278-141.058,141.057-141.058H313.8V84.226c0-7.617,4.323-14.575,11.153-17.949 C327.764,64.889,330.798,64.206,333.818,64.206 M333.818,44.206c-6.113,0-12.241,1.432-17.723,4.14 C302.343,55.14,293.8,68.888,293.8,84.226v11.813H161.057C72.25,96.039,0,168.289,0,257.097 c0,88.807,72.25,161.057,161.057,161.057h167.072c35.122,0,63.696-28.574,63.696-63.696s-28.574-63.696-63.696-63.696H161.057 c-18.563,0-33.666-15.103-33.666-33.666c0-18.563,15.103-33.666,33.666-33.666H293.8v12.279c0,15.343,8.546,29.094,22.303,35.885 c5.476,2.702,11.595,4.13,17.698,4.13c8.743,0,17.385-2.927,24.334-8.243l82.151-62.84c13.82-10.57,22.072-27.27,22.073-44.671 c0.001-17.4-8.249-34.101-22.068-44.674l-82.154-62.855C351.197,47.131,342.559,44.206,333.818,44.206L333.818,44.206z"></path> </g> </g> </g></svg>