<?xml version="1.0" encoding="utf-8"?>
<svg viewBox="0 0 500 500" xmlns="http://www.w3.org/2000/svg">
  <ellipse style="stroke: rgb(0, 0, 0); fill: rgb(255, 255, 255);" cx="232.993" cy="241.517" rx="235.65" ry="228.917"/>
  <path d="M 330.996 79.592 C 347.564 95.139 361.338 115.963 363.845 141.407 C 364.362 148.907 363.845 155.78 362.608 163.19 C 362.331 164.848 362.331 164.848 362.048 166.54 C 354.958 205.82 327.187 239.527 304.962 268.833 C 282.573 298.39 262.401 330.322 248.707 365.79 C 248.661 366.217 248.613 366.62 248.561 366.994 C 248.25 369.27 247.819 370.689 246.906 372.503 C 246.444 373.422 245.862 374.413 245.197 375.372 C 240.561 388.758 236.869 402.647 234.333 417.095 C 233.234 416.877 232.135 416.657 231.003 416.433 C 227.162 403.965 225.522 392.871 225.788 382.025 C 224.925 381.721 224.108 381.312 223.232 380.77 C 222.614 380.388 221.965 379.942 221.318 379.441 C 221.13 379.845 220.854 380.271 220.403 380.976 C 218.915 380.535 218.915 380.535 217.232 379.335 C 216.073 375.966 215.175 372.502 214.518 368.976 C 214.367 368.445 214.234 367.905 214.125 367.361 C 213.79 365.686 213.559 363.794 213.52 361.866 C 212.073 346.856 214.578 331.169 219.497 317.261 C 229.174 291.292 242.928 267.397 259.112 246.305 C 261.815 242.728 264.418 239.047 267.034 235.382 C 268.17 233.79 269.306 232.2 270.443 230.608 C 271.007 229.818 271.574 229.028 272.154 228.214 C 273.762 225.969 275.383 223.733 277.004 221.499 C 311.417 174.851 311.417 174.851 330.192 118.466 C 330.514 116.674 330.514 116.674 330.842 114.846 C 332.41 105.305 332.428 96.565 330.048 87.293 C 329.279 83.915 329.583 82.651 330.996 79.592 Z" style="vector-effect: non-scaling-stroke; stroke-width: 0px; fill: rgb(16, 72, 7); paint-order: fill; transform-origin: 236.505px 186.545px;"/>
  <path d="M 118.117 111.566 C 124.712 111.681 131.306 111.806 137.903 111.936 C 140.147 111.979 142.393 112.02 144.638 112.059 C 147.86 112.116 151.081 112.181 154.302 112.246 C 155.311 112.262 156.321 112.279 157.361 112.297 C 158.292 112.316 159.223 112.336 160.182 112.355 C 161.005 112.372 161.827 112.387 162.675 112.402 C 164.646 112.561 164.646 112.561 166.338 113.554 C 167.067 115.43 167.72 117.349 168.337 119.278 C 168.931 121.112 168.931 121.112 169.535 122.986 C 169.746 123.646 169.957 124.304 170.173 124.983 C 171.304 128.525 172.456 132.057 173.607 135.59 C 173.846 136.323 174.084 137.056 174.33 137.81 C 176.748 145.225 179.276 152.583 181.829 159.933 C 182.056 160.583 182.281 161.234 182.513 161.903 C 183.445 164.589 184.379 167.276 185.314 169.963 C 187.062 174.986 188.795 180.015 190.528 185.045 C 190.912 186.166 190.912 186.166 191.306 187.31 C 191.833 188.835 192.356 190.361 192.881 191.885 C 198.49 208.181 204.141 224.456 209.83 240.712 C 210.352 242.209 210.871 243.706 211.389 245.205 C 212.692 248.972 214.042 252.699 215.484 256.396 C 220.6 269.706 220.6 269.706 218.736 275.674 C 218.475 276.336 218.211 276.998 217.942 277.682 C 217.693 278.456 217.444 279.231 217.188 280.028 C 216.374 282.526 215.5 284.982 214.611 287.444 C 208.675 304.432 206.653 320.912 206.839 339.169 C 206.847 340.643 206.855 342.117 206.863 343.591 C 206.881 347.153 206.909 350.714 206.946 354.276 C 206.106 354.276 205.269 354.276 204.406 354.276 C 204.183 353.66 203.96 353.046 203.73 352.412 C 186.189 304.176 168.497 256.008 150.528 207.989 C 145.176 193.687 139.89 179.358 134.68 164.983 C 133.136 160.721 131.579 156.465 130.023 152.209 C 129.157 149.84 128.292 147.47 127.427 145.102 C 126.868 143.573 126.311 142.046 125.751 140.518 C 124.481 137.049 123.217 133.578 121.962 130.102 C 121.156 127.875 120.338 125.65 119.505 123.436 C 119.185 122.569 118.868 121.701 118.54 120.805 C 118.269 120.086 117.999 119.368 117.719 118.628 C 117.156 116.006 117.617 114.177 118.117 111.566 Z" style="fill: rgb(81, 51, 4);"/>
  <path stroke-width="0" d="M 221.459 353.476 C 222.22 353.506 223.408 353.861 224.476 354.344 C 224.165 353.402 223.932 352.48 224.025 351.715 C 224.215 350.161 225.4 348.527 226.29 347.711 C 227.007 347.052 227.713 346.712 228.704 346.75 C 230.031 346.802 232.429 347.458 233.685 348.833 C 235.118 350.401 235.941 353.583 236.401 356.199 C 236.878 358.91 236.622 361.277 236.401 364.847 C 236.102 369.675 235.533 378.686 234.288 383.104 C 233.963 384.256 233.612 385.314 233.223 386.256 C 234.885 389.645 236.435 392.722 237.005 394.635 C 237.667 396.855 237.85 397.743 237.609 399.119 C 237.374 400.459 236.644 401.975 235.647 402.802 C 234.609 403.663 232.724 404.242 231.421 404.083 C 230.167 403.931 229.271 403.74 227.949 402.002 C 225.16 398.331 219.136 384.755 217.385 377.018 C 215.885 370.393 216.022 362.175 216.781 358.441 C 217.218 356.293 218.157 355.253 219.045 354.438 C 219.762 353.779 220.469 353.439 221.459 353.476 Z" style="stroke-width: 2px; fill: rgb(16, 72, 7); paint-order: fill; stroke: rgb(16, 72, 7);"/>
</svg>