<svg viewBox="-28.98 0 172.38 172.38" xmlns="http://www.w3.org/2000/svg" fill="#fff0f9"><g id="SVGRepo_bgCarrier" stroke-width="0"></g><g id="SVGRepo_tracerCarrier" stroke-linecap="round" stroke-linejoin="round"></g><g id="SVGRepo_iconCarrier"> <defs> <style>.cls-1{fill:#fff0f9;}</style> </defs> <g id="Layer_2" data-name="Layer 2"> <g id="Layer_1-2" data-name="Layer 1"> <path d="M47.69,100.66c-3-2.48-6-2.34-8.73-2.7C27.21,96.42,16.23,92.4,5.37,87.89A7.13,7.13,0,0,1,.7,81.33a87.41,87.41,0,0,1-.65-12C.44,61.67,1.22,54,2,46.32c.64-6.55,1.18-13.11,2.25-19.59C5.14,21.1,6.81,15.59,8.07,10,9.5,3.73,13.68,1.11,19.81.84,25.24.6,30.68-.18,36.09,0,46.94.48,57.78,1.43,68.61,2.2a13.49,13.49,0,0,1,8.92,3.67c-1.7,5.9-3.23,11.94-5.19,17.83C70.47,29.33,67,34.4,66.12,40.9a83.55,83.55,0,0,0,16.15,2c6.3.13,12.59.23,18.89.4a18.5,18.5,0,0,1,13.26,5.85,68.67,68.67,0,0,1-7.85,32.9,314,314,0,0,1-32.14,48.57c-8.79,10.91-18,21.49-27,32.24-3.39,4.05-7.81,6.68-12.36,9.09a3.17,3.17,0,0,1-4.77-3A123.92,123.92,0,0,1,33,151.2c2.75-10.79,6.09-21.43,9.2-32.13C44,113,45.8,107,47.69,100.66ZM11.48,79.72a81.33,81.33,0,0,0,23,7.82C40.9,88.81,47.39,90,53.8,91.4,58,92.34,59.47,95.21,58,99c-6,15.51-9.9,31.6-13.94,47.66-.18.69.16,1.5.33,2.78a20.11,20.11,0,0,0,3-2.32c7.5-9,15.52-17.53,22.47-27a335.81,335.81,0,0,0,24.43-38.3A115.16,115.16,0,0,0,101.11,66a32.43,32.43,0,0,0,1.94-13c-3.17-.39-6-.91-8.75-1-4.57-.21-9.19.17-13.73-.28-7.38-.74-14.75-1.8-22.06-3-3.41-.58-5-2.86-4.42-6.21a53.34,53.34,0,0,1,2.64-9c1.63-4.58,3.5-9.07,5.13-13.65,1-2.74,1.34-5.53-.47-8C48,8.9,28.87,8.8,17.9,11.59,12.15,25,8.23,65.46,11.48,79.72Z"></path> <path class="cls-1" d="M11.48,79.72C8.23,65.46,12.15,25,17.9,11.59c11-2.79,30.07-2.69,43.49.3,1.81,2.43,1.44,5.22.47,8-1.63,4.58-3.5,9.07-5.13,13.65a53.34,53.34,0,0,0-2.64,9c-.56,3.35,1,5.63,4.42,6.21,7.31,1.24,14.68,2.3,22.06,3,4.54.45,9.16.07,13.73.28,2.8.13,5.58.65,8.75,1a32.43,32.43,0,0,1-1.94,13,115.16,115.16,0,0,1-6.83,15.7A335.81,335.81,0,0,1,69.85,120c-6.95,9.51-15,18-22.47,27a20.11,20.11,0,0,1-3,2.32c-.17-1.28-.51-2.09-.33-2.78,4-16.06,8-32.15,13.94-47.66,1.43-3.74,0-6.61-4.24-7.55C47.39,90,40.9,88.81,34.45,87.54A81.33,81.33,0,0,1,11.48,79.72Z"></path> </g> </g> </g></svg>